<?xml version="1.0" encoding="UTF-8"?>
<svg xmlns="http://www.w3.org/2000/svg" width="1024" height="1024" viewBox="0 0 1024 1024" role="img" aria-label="HtyApp icon">
  <rect width="1024" height="1024" rx="220" fill="#1f232b"/>
  <g>
    <g fill="#f3eee4">
      <path d="M512 512 C554 448 626 336 704 244 C760 258 810 306 824 366 C800 470 722 568 616 638 C574 666 532 682 492 688 C492 630 500 570 512 512 Z"/>
      <path d="M512 512 C554 448 626 336 704 244 C760 258 810 306 824 366 C800 470 722 568 616 638 C574 666 532 682 492 688 C492 630 500 570 512 512 Z" transform="rotate(72 512 512)"/>
      <path d="M512 512 C554 448 626 336 704 244 C760 258 810 306 824 366 C800 470 722 568 616 638 C574 666 532 682 492 688 C492 630 500 570 512 512 Z" transform="rotate(144 512 512)"/>
      <path d="M512 512 C554 448 626 336 704 244 C760 258 810 306 824 366 C800 470 722 568 616 638 C574 666 532 682 492 688 C492 630 500 570 512 512 Z" transform="rotate(216 512 512)"/>
      <path d="M512 512 C554 448 626 336 704 244 C760 258 810 306 824 366 C800 470 722 568 616 638 C574 666 532 682 492 688 C492 630 500 570 512 512 Z" transform="rotate(288 512 512)"/>
    </g>
    <g fill="#dd7d59">
      <path d="M512 512 C540 468 594 386 652 322 C696 336 734 372 748 416 C726 484 670 546 594 594 C564 614 534 626 506 630 C506 592 508 554 512 512 Z"/>
      <path d="M512 512 C540 468 594 386 652 322 C696 336 734 372 748 416 C726 484 670 546 594 594 C564 614 534 626 506 630 C506 592 508 554 512 512 Z" transform="rotate(72 512 512)"/>
      <path d="M512 512 C540 468 594 386 652 322 C696 336 734 372 748 416 C726 484 670 546 594 594 C564 614 534 626 506 630 C506 592 508 554 512 512 Z" transform="rotate(144 512 512)"/>
      <path d="M512 512 C540 468 594 386 652 322 C696 336 734 372 748 416 C726 484 670 546 594 594 C564 614 534 626 506 630 C506 592 508 554 512 512 Z" transform="rotate(216 512 512)"/>
      <path d="M512 512 C540 468 594 386 652 322 C696 336 734 372 748 416 C726 484 670 546 594 594 C564 614 534 626 506 630 C506 592 508 554 512 512 Z" transform="rotate(288 512 512)"/>
    </g>
  </g>
  <circle cx="512" cy="512" r="110" fill="#f3eee4"/>
  <circle cx="512" cy="512" r="46" fill="#dd7d59"/>
</svg>
